<svg xmlns="http://www.w3.org/2000/svg" xmlns:xlink="http://www.w3.org/1999/xlink" width="200" zoomAndPan="magnify" viewBox="0 0 150 149.999998" height="200" preserveAspectRatio="xMidYMid meet" version="1.0"><defs><clipPath id="33539d37f8"><path d="M 75 0 C 33.578125 0 0 33.578125 0 75 C 0 116.421875 33.578125 150 75 150 C 116.421875 150 150 116.421875 150 75 C 150 33.578125 116.421875 0 75 0 Z M 75 0 " clip-rule="nonzero"/></clipPath><clipPath id="1103ec6d40"><path d="M 0 0 L 150 0 L 150 150 L 0 150 Z M 0 0 " clip-rule="nonzero"/></clipPath><clipPath id="8d71fb28aa"><path d="M 75 0 C 33.578125 0 0 33.578125 0 75 C 0 116.421875 33.578125 150 75 150 C 116.421875 150 150 116.421875 150 75 C 150 33.578125 116.421875 0 75 0 Z M 75 0 " clip-rule="nonzero"/></clipPath><clipPath id="20a65e30ce"><rect x="0" width="150" y="0" height="150"/></clipPath><clipPath id="e221a2f8f2"><path d="M 6.195312 27 L 116 27 L 116 143.570312 L 6.195312 143.570312 Z M 6.195312 27 " clip-rule="nonzero"/></clipPath><clipPath id="8ef83db270"><path d="M 42 6.320312 L 143.445312 6.320312 L 143.445312 121 L 42 121 Z M 42 6.320312 " clip-rule="nonzero"/></clipPath></defs><g clip-path="url(#33539d37f8)"><g transform="matrix(1, 0, 0, 1, 0, -0.000000000000007527)"><g clip-path="url(#20a65e30ce)"><g clip-path="url(#1103ec6d40)"><g clip-path="url(#8d71fb28aa)"><rect x="-33" width="216" fill="#748b51" height="215.999996" y="-32.999999" fill-opacity="1"/></g></g></g></g></g><path fill="#6c3823" d="M 58.335938 116.078125 C 57.46875 118.269531 52.527344 114.773438 51.195312 113.769531 C 46.421875 110.167969 42.898438 105.363281 40.714844 99.839844 L 40.023438 98.089844 C 36.199219 88.410156 36.863281 76.464844 40.296875 66.78125 C 40.664062 65.546875 41.035156 64.488281 41.546875 63.285156 C 45.804688 52.566406 52.96875 43.230469 62.664062 36.925781 C 68.464844 33.152344 82.023438 26.816406 86.214844 35.578125 C 87.351562 37.953125 87.878906 40.476562 87.773438 43.175781 C 87.335938 54.367188 80.859375 63.835938 72.226562 70.597656 C 62.378906 78.3125 55.441406 88.132812 54.765625 100.910156 C 54.257812 110.464844 58.9375 114.554688 58.335938 116.078125 Z M 58.335938 116.078125 " fill-opacity="1" fill-rule="nonzero"/><path fill="#6c3a22" d="M 62.371094 110.960938 C 61.390625 105.8125 62.3125 100.722656 64.304688 95.832031 C 67.175781 88.800781 72.011719 83.125 78.105469 78.515625 C 87.765625 71.207031 94.660156 59.804688 94.957031 47.667969 C 95.195312 38.003906 89.945312 34.527344 91.308594 33.199219 C 92.734375 31.8125 96.601562 34.492188 98.171875 35.710938 C 111.285156 45.855469 114.605469 62.492188 110.683594 78.261719 C 107.0625 92.820312 97.839844 105.625 85.222656 113.613281 C 81.117188 116.214844 76.667969 118.019531 72.03125 118.550781 C 66.765625 119.152344 63.335938 116.015625 62.375 110.960938 Z M 62.371094 110.960938 " fill-opacity="1" fill-rule="nonzero"/><path fill="#e6ac51" d="M 54.339844 18.789062 C 54.761719 21.808594 44.058594 35.171875 31.050781 30.007812 C 29.820312 29.515625 28.878906 28.589844 28.617188 27.5625 C 27.757812 24.234375 30.761719 21.773438 33.628906 20.15625 C 42.871094 14.933594 54.132812 17.324219 54.339844 18.792969 Z M 54.339844 18.789062 " fill-opacity="1" fill-rule="nonzero"/><path fill="#e6ac51" d="M 19.25 53.9375 C 18.542969 54.128906 18.03125 53.921875 17.730469 53.828125 C 17.324219 53.695312 17.121094 52.9375 17.148438 52.425781 C 17.671875 43.226562 26.503906 34.058594 36.320312 34.726562 C 37.015625 35.714844 36.664062 37.023438 36.277344 38.171875 C 33.675781 45.878906 27.167969 51.8125 19.25 53.9375 Z M 19.25 53.9375 " fill-opacity="1" fill-rule="nonzero"/><path fill="#e6ac4e" d="M 131.863281 103.175781 C 130.34375 109.921875 126.714844 115.855469 120.691406 119.105469 C 119.972656 119.492188 119.265625 119.597656 118.769531 119.457031 C 115.660156 118.574219 117.125 103.117188 129.796875 97.089844 C 130.410156 96.800781 131.136719 96.675781 131.609375 97.023438 C 132.585938 97.75 131.917969 100.652344 132.394531 100.789062 C 131.664062 101.527344 132.234375 102.402344 131.863281 103.175781 Z M 131.863281 103.175781 " fill-opacity="1" fill-rule="nonzero"/><path fill="#e6ac4e" d="M 115.429688 122 C 116.90625 123.398438 106.628906 134.199219 94.964844 131.617188 C 94.324219 131.476562 93.882812 131.078125 93.695312 130.730469 C 93.425781 130.230469 93.691406 129.480469 94.039062 128.945312 C 99.1875 121.042969 112.050781 118.789062 115.429688 121.996094 Z M 115.429688 122 " fill-opacity="1" fill-rule="nonzero"/><g clip-path="url(#e221a2f8f2)"><path stroke-linecap="round" transform="matrix(0.145409, 0, 0, 0.14567, 2.121737, 2.109304)" fill="none" stroke-linejoin="round" d="M 154.785081 179.800441 C 23.017898 331.71196 -4.920506 540.875217 91.225213 719.334381 C 188.311166 899.590204 390.595955 995.000828 591.403233 957.270994 C 656.628661 945.016172 719.436341 920.050661 774.668417 884.358828 " stroke="#6a3821" stroke-width="11.38" stroke-opacity="1" stroke-miterlimit="4"/></g><path fill="#693820" d="M 16.246094 60.453125 C 14.09375 67.1875 13.753906 74.4375 14.523438 81.441406 C 14.636719 82.726562 14.929688 84.453125 15.132812 85.742188 C 15.191406 86.007812 15.367188 86.875 15.429688 87.160156 C 15.558594 87.746094 15.683594 88.492188 15.839844 89.050781 C 16.132812 90.191406 16.511719 91.675781 16.875 92.769531 C 16.980469 93.117188 17.210938 93.828125 17.3125 94.152344 C 17.371094 94.378906 18.035156 96.148438 18.136719 96.421875 C 18.304688 96.929688 18.636719 97.710938 18.855469 98.214844 C 19.265625 99.226562 19.957031 100.730469 20.460938 101.726562 C 20.460938 101.726562 20.882812 102.597656 20.882812 102.597656 L 21.34375 103.445312 L 22.269531 105.140625 C 22.617188 105.71875 23.449219 107.0625 23.78125 107.613281 C 24.125 108.125 25.039062 109.476562 25.40625 110.011719 C 25.949219 110.761719 26.585938 111.582031 27.140625 112.332031 C 28.089844 113.503906 29.246094 114.90625 30.28125 115.996094 C 30.664062 116.425781 31.199219 117.007812 31.609375 117.398438 C 31.871094 117.65625 33.074219 118.871094 33.328125 119.089844 C 33.554688 119.300781 34.164062 119.847656 34.402344 120.0625 C 34.523438 120.175781 35.183594 120.769531 35.296875 120.871094 C 35.421875 120.976562 35.726562 121.226562 35.855469 121.332031 C 40.765625 125.476562 46.355469 128.851562 52.3125 131.257812 C 52.847656 131.5 53.566406 131.742188 54.113281 131.945312 C 54.582031 132.101562 55.441406 132.449219 55.929688 132.589844 C 55.929688 132.589844 57.773438 133.164062 57.773438 133.164062 C 58.34375 133.359375 59.054688 133.53125 59.632812 133.679688 C 60.765625 133.992188 62.238281 134.320312 63.390625 134.539062 C 64.507812 134.796875 66.066406 134.984375 67.195312 135.167969 C 67.195312 135.167969 67.433594 135.207031 67.433594 135.207031 L 67.675781 135.230469 L 68.15625 135.277344 L 69.113281 135.375 L 70.074219 135.472656 C 70.234375 135.488281 70.394531 135.507812 70.554688 135.519531 C 71.359375 135.566406 72.261719 135.597656 72.964844 135.640625 C 78.09375 135.832031 83.289062 135.464844 88.304688 134.394531 C 88.628906 134.320312 88.953125 134.527344 89.023438 134.855469 C 89.09375 135.179688 88.890625 135.5 88.566406 135.570312 C 84.386719 136.480469 80.132812 136.847656 75.867188 136.894531 C 74.171875 136.929688 72.171875 136.808594 70.464844 136.722656 C 69.765625 136.652344 68.722656 136.550781 68.019531 136.476562 C 67.8125 136.453125 67.472656 136.425781 67.285156 136.402344 C 66.441406 136.269531 64.941406 136.058594 64.125 135.921875 C 63.558594 135.796875 61.832031 135.457031 61.230469 135.328125 C 60.152344 135.058594 58.972656 134.769531 57.898438 134.464844 C 57.007812 134.183594 55.484375 133.742188 54.621094 133.414062 C 53.9375 133.167969 52.988281 132.824219 52.3125 132.566406 C 51.710938 132.3125 50.195312 131.675781 49.59375 131.421875 C 49.335938 131.292969 48.535156 130.917969 48.261719 130.78125 C 43.378906 128.46875 38.820312 125.4375 34.699219 121.945312 C 34.152344 121.488281 33.398438 120.773438 32.867188 120.300781 C 32.015625 119.546875 30.855469 118.351562 30.058594 117.542969 C 29.421875 116.832031 28.695312 116.070312 28.074219 115.355469 C 27.652344 114.835938 26.59375 113.589844 26.191406 113.078125 C 25.632812 112.3125 24.976562 111.476562 24.421875 110.714844 C 24.070312 110.175781 23.113281 108.800781 22.765625 108.265625 C 22.414062 107.703125 21.585938 106.320312 21.226562 105.746094 C 20.953125 105.222656 20.082031 103.671875 19.808594 103.152344 C 19.503906 102.535156 18.824219 101.117188 18.519531 100.496094 C 18.128906 99.617188 17.738281 98.660156 17.355469 97.777344 C 17.015625 96.894531 16.472656 95.4375 16.167969 94.542969 C 15.847656 93.476562 15.433594 92.320312 15.167969 91.242188 C 15.054688 90.761719 14.527344 88.894531 14.449219 88.375 C 14.316406 87.714844 14.085938 86.632812 13.949219 85.960938 C 13.824219 85.226562 13.671875 84.1875 13.566406 83.527344 C 13.363281 82.230469 13.261719 80.917969 13.128906 79.613281 C 13.128906 79.613281 13.023438 77.644531 13.023438 77.644531 L 12.96875 76.660156 C 12.914062 73.738281 12.972656 70.699219 13.386719 67.800781 C 13.734375 65.1875 14.300781 62.601562 15.097656 60.085938 C 15.195312 59.742188 15.246094 59.351562 15.574219 59.148438 C 15.660156 59.074219 15.75 58.992188 15.820312 58.894531 C 15.84375 58.921875 15.878906 58.957031 15.945312 59.019531 C 16.140625 59.21875 16.503906 59.582031 16.503906 59.582031 C 16.414062 59.867188 16.324219 60.167969 16.246094 60.453125 Z M 16.246094 60.453125 " fill-opacity="1" fill-rule="nonzero"/><g clip-path="url(#8ef83db270)"><path stroke-linecap="round" transform="matrix(0.145409, 0, 0, 0.14567, 2.121737, 2.109304)" fill="none" stroke-linejoin="round" d="M 858.376173 809.489108 C 876.831638 787.875572 893.540952 765.618456 906.865422 738.909917 C 950.223676 651.973086 972.30576 557.420567 964.219741 459.891495 C 954.871122 347.077415 904.716314 243.541602 821.707018 165.319907 C 735.12483 83.692606 622.457844 33.761582 504.337496 34.592872 L 471.483007 34.807398 C 404.914387 35.290083 342.187298 55.321487 281.824227 79.697051 " stroke="#6b3921" stroke-width="11.38" stroke-opacity="1" stroke-miterlimit="4"/></g><path fill="#693821" d="M 133.496094 90.117188 C 135.019531 84.480469 135.652344 78.628906 135.570312 72.796875 C 135.578125 72.4375 135.574219 71.660156 135.582031 71.324219 C 135.601562 67.621094 135.167969 63.890625 134.320312 60.289062 C 128.136719 34.867188 103.035156 15.085938 77.058594 14.1875 C 71.578125 13.972656 66.117188 14.761719 60.835938 16.191406 C 60.652344 16.214844 60.476562 16.121094 60.34375 16.003906 C 59.566406 15.34375 60.894531 14.964844 61.417969 14.820312 C 92.445312 6.25 127.160156 28.410156 135.25 59.046875 C 136.160156 62.5625 136.675781 66.210938 136.769531 69.84375 C 136.785156 70.75 136.785156 71.898438 136.773438 72.804688 C 136.773438 76.074219 136.679688 79.425781 136.210938 82.667969 C 135.855469 85.285156 135.332031 87.875 134.660156 90.425781 C 134.515625 90.953125 134.15625 92.285156 133.488281 91.515625 C 133.367188 91.382812 133.277344 91.207031 133.292969 91.023438 C 133.355469 90.714844 133.433594 90.421875 133.496094 90.117188 Z M 133.496094 90.117188 " fill-opacity="1" fill-rule="nonzero"/></svg>